<?xml version="1.0" encoding="UTF-8"?>
<svg version="1.1" xmlns="http://www.w3.org/2000/svg" width="1304" height="362">
<path d="M0 0 C1.67787617 0.5123752 3.35610373 1.02360094 5.03465271 1.5337677 C8.63996465 2.63209838 12.2427722 3.73817343 15.84381104 4.85043335 C21.60290206 6.62916869 27.36715551 8.39073739 33.13232422 10.1496582 C40.17068057 12.2981597 47.20781801 14.45056696 54.24342346 16.60805988 C66.64854764 20.41161622 79.0630221 24.18339716 91.484375 27.93359375 C92.37637037 28.20291718 93.26836575 28.4722406 94.18739128 28.74972534 C98.66007482 30.09999617 103.13293124 31.44969322 107.60586548 32.7991333 C115.68027664 35.23542863 123.7531023 37.67696861 131.82598686 40.11831665 C134.48537359 40.92253937 137.14479028 41.72666293 139.80421448 42.53076172 C158.42442161 48.16088179 177.04306383 53.79617128 195.66163635 59.43169403 C225.24678694 68.38657559 254.83405006 77.3344577 284.42260742 86.27807617 C287.11677186 87.092437 289.81093561 87.90680011 292.50509834 88.72116661 C294.30996156 89.26672387 296.11482581 89.81227771 297.91969109 90.35782814 C311.37664313 94.42547548 324.83290391 98.49540381 338.28881073 102.56650734 C344.21098897 104.35819408 350.13327192 106.14953471 356.05555725 107.94086742 C361.68541058 109.64379063 367.31509778 111.34726154 372.94465923 113.05114937 C376.43726543 114.10809668 379.93003773 115.16449429 383.42285347 116.2207489 C385.02355399 116.70493299 386.62418799 117.18933704 388.2247448 117.67399597 C398.91216798 120.9100599 409.61492109 124.09019541 420.33203125 127.2265625 C418.45769473 121.40778821 416.40159103 115.71448947 414.07421875 110.0625 C413.76940582 109.31550842 413.4645929 108.56851685 413.15054321 107.79888916 C412.50370771 106.21389264 411.85576845 104.62934616 411.20678711 103.04522705 C410.19525951 100.57278929 409.18947892 98.09808952 408.18554688 95.62255859 C404.48477656 86.48589285 404.48477656 86.48589285 400.73535156 77.36914062 C399.42142171 74.20167933 398.12496048 71.02763649 396.83203125 67.8515625 C396.45288574 66.95743652 396.07374023 66.06331055 395.68310547 65.14208984 C393.65133854 60.0966502 392.84958925 56.6667799 394.33203125 51.2265625 C396.26953125 48.2890625 396.26953125 48.2890625 399.33203125 46.2265625 C407.54528565 44.81656976 415.13321132 47.70417466 422.796875 50.328125 C424.09841253 50.76166565 425.40040649 51.19383811 426.70281982 51.6247406 C429.46298974 52.54098462 432.21987912 53.46628002 434.97445679 54.39920044 C439.32486824 55.87255391 443.68193681 57.32546175 448.0402832 58.77514648 C453.13907673 60.47244715 458.23639225 62.17402739 463.33150768 63.88233852 C473.05766287 67.14301007 482.80425204 70.3374943 492.56448364 73.49456787 C496.75277951 74.84997074 500.9389334 76.21194921 505.125 77.57421875 C505.98669296 77.85458984 506.84838593 78.13496094 507.7361908 78.42382812 C520.77526024 82.6696023 533.80262264 86.95125481 546.83203125 91.2265625 C564.98171186 97.18193781 583.13473808 103.12654731 601.30172729 109.02896118 C612.93402713 112.80872539 624.55906089 116.61030051 636.1796875 120.42578125 C637.57298586 120.88315434 638.96628623 121.34052128 640.35958862 121.79788208 C646.56549338 123.83518384 652.77115765 125.87320717 658.97583866 127.91423321 C660.92363773 128.55475639 662.87162385 129.19470703 664.81968689 129.83442688 C667.21224725 130.62017127 669.60449221 131.40687702 671.99635315 132.19474792 C678.41485258 134.30115597 684.84961071 136.32554822 691.33203125 138.2265625 C690.85636719 137.13988281 690.38070312 136.05320313 689.890625 134.93359375 C682.99850843 119.07108079 676.52449503 103.04295112 670.06826782 86.99942017 C668.36252452 82.76508339 666.64233333 78.53733998 664.89784241 74.31881714 C664.16876083 72.55472001 663.44452558 70.78862236 662.72045898 69.02246094 C661.86344416 66.93255036 660.99888115 64.84571212 660.12524414 62.76269531 C656.63147843 54.18373517 656.63147843 54.18373517 657.33203125 49.2265625 C659.05224861 45.91355129 660.42342935 43.80705816 663.58203125 41.7890625 C672.17726805 40.03094588 681.30440895 44.13522429 689.4609375 46.6171875 C690.97940948 47.07397613 692.49806573 47.53015259 694.01689148 47.98576355 C697.27109906 48.9631607 700.52411508 49.94439289 703.77624512 50.92868042 C708.97154716 52.50088961 714.16955153 54.06402098 719.36816406 55.62524414 C721.14450125 56.15876598 722.92083792 56.69228955 724.69717407 57.22581482 C725.58165852 57.4914517 726.46614296 57.75708858 727.37742996 58.03077507 C730.08524975 58.8443316 732.79282251 59.65870558 735.50033569 60.47328186 C751.79642799 65.37486398 768.11098429 70.21267508 784.43229675 75.02950668 C788.0549931 76.09884945 791.67739341 77.169194 795.29980469 78.23950195 C796.76838129 78.67340755 798.23695836 79.10731155 799.70553589 79.54121399 C800.43638271 79.75715021 801.16722954 79.97308643 801.92022324 80.19556618 C804.14414805 80.85260335 806.3681063 81.50952726 808.59207153 82.16642761 C825.75498441 87.23619613 842.91426892 92.31821179 860.07299042 97.40214539 C861.78685776 97.909944 863.50073004 98.41772599 865.21460724 98.92549133 C891.2349831 106.63448252 917.24994095 114.36155748 943.26167297 122.09965897 C966.30020463 128.95314563 989.3442186 135.78780322 1012.39453125 142.6015625 C1013.11773056 142.81534294 1013.84092987 143.02912338 1014.58604431 143.24938202 C1016.7842489 143.89917158 1018.98245621 144.54895195 1021.18066406 145.19873047 C1024.14128014 146.07387938 1027.1018918 146.94904319 1030.0625 147.82421875 C1030.80068089 148.04242531 1031.53886177 148.26063187 1032.29941177 148.48545074 C1054.33431678 154.99922413 1076.36441206 161.52923603 1098.39477539 168.05834961 C1099.23790881 168.30822789 1100.08104223 168.55810617 1100.94972515 168.81555653 C1101.79412057 169.06580932 1102.63851599 169.31606211 1103.50849915 169.57389832 C1104.35406183 169.82449697 1105.19962452 170.07509563 1106.07081032 170.33328819 C1107.78251126 170.84058735 1109.49421043 171.34789251 1111.20590782 171.85520363 C1120.7662057 174.68865529 1130.32669888 177.52144535 1139.88769531 180.35253906 C1140.76095648 180.61112418 1141.63421764 180.8697093 1142.53394127 181.13613033 C1146.93216102 182.43846589 1151.33043716 183.74061065 1155.72879028 185.04249573 C1164.31220886 187.5834063 1172.89468639 190.12741786 1181.47509766 192.6784668 C1184.77629244 193.65959417 1188.07757145 194.64043764 1191.37890625 195.62109375 C1192.18235348 195.85980635 1192.9858007 196.09851894 1193.81359482 196.34446526 C1204.46530499 199.507584 1215.12974926 202.62260054 1225.80802917 205.69475746 C1229.85190907 206.86057062 1233.89271647 208.03698645 1237.93328094 209.21423244 C1241.03099939 210.115625 1244.13113623 211.00668392 1247.23583984 211.88375854 C1250.57042365 212.82596843 1253.89689582 213.79281113 1257.22265625 214.765625 C1258.18617004 215.03022018 1259.14968384 215.29481537 1260.14239502 215.56742859 C1266.01829194 217.32096693 1268.95644005 219.04320454 1272.33203125 224.2265625 C1273.20408775 227.35057667 1273.07539034 230.07309387 1272.33203125 233.2265625 C1270.1504398 235.98225697 1268.46025631 237.66244997 1265.33203125 239.2265625 C1255.33544728 239.72534454 1245.24810815 238.99438748 1235.25546265 238.54321289 C1233.5583771 238.46872098 1231.8612804 238.39448264 1230.16417372 238.32047367 C1225.53266381 238.11778738 1220.9013163 237.91158436 1216.2699883 237.70478868 C1211.26240056 237.48183174 1206.25466646 237.2622092 1201.24694824 237.04220581 C1192.57707441 236.66089658 1183.90729021 236.27760222 1175.23756027 235.89303589 C1162.68209572 235.3361852 1150.12645922 234.78329105 1137.57077117 234.23150504 C1117.17030712 233.33493455 1096.76992851 232.4364371 1076.36962891 231.53613281 C1075.14983104 231.48230175 1073.93003317 231.42847068 1072.67327173 231.37300837 C1059.07097957 230.77268293 1045.46870704 230.17191428 1031.86645508 229.57067871 C1026.93652371 229.35277697 1022.00659211 229.13488063 1017.07666016 228.91699219 C1015.86017604 228.86322627 1014.64369193 228.80946035 1013.39034466 228.75406516 C993.07122005 227.85609515 972.75195392 226.96137126 952.43257582 226.06915569 C939.91675547 225.51945138 927.40106392 224.96696731 914.88552709 224.41084456 C906.30145014 224.02961838 897.71724384 223.65140301 889.13293187 223.27550626 C884.18873976 223.058905 879.24461639 222.84096794 874.30064774 222.61931992 C869.76185503 222.41586124 865.22290548 222.21634962 860.68380924 222.0197829 C859.05460034 221.94856103 857.42545056 221.87596834 855.79637544 221.80174935 C844.30165358 221.27915382 832.83823063 221.14823551 821.33203125 221.2265625 C824.34802611 228.81182763 827.3699961 236.39469885 830.39453125 243.9765625 C830.84422272 245.10470367 831.29391418 246.23284485 831.75723267 247.39517212 C836.41353971 259.06910341 841.0841468 270.734144 845.96484375 282.31640625 C846.49019966 283.56452591 846.49019966 283.56452591 847.02616882 284.83786011 C848.64595648 288.6791141 850.27715992 292.51502692 851.92407227 296.34472656 C852.50162494 297.70501016 853.079027 299.06535773 853.65625 300.42578125 C854.40007935 302.15574341 854.40007935 302.15574341 855.15893555 303.9206543 C856.87397145 308.7538075 857.93162205 312.58557716 856.14453125 317.4765625 C853.27290082 321.83351902 853.27290082 321.83351902 850.33203125 323.2265625 C844.50501503 323.73764027 839.02302486 322.98180743 833.37036133 321.55957031 C832.61973734 321.37961958 831.86911335 321.19966885 831.09574318 321.01426506 C828.59525613 320.4123194 826.0985597 319.79593575 823.6015625 319.1796875 C821.78555567 318.73975545 819.96930982 318.30080912 818.15284729 317.86276245 C814.22139565 316.91277812 810.29151568 315.95662412 806.36273193 314.9956665 C800.05830402 313.45394145 793.75050879 311.92634835 787.44189453 310.40185547 C786.36036606 310.14046721 785.27883759 309.87907894 784.16453552 309.60976982 C781.9371963 309.07147008 779.70984787 308.53320849 777.48249054 307.99498367 C774.03405366 307.16121942 770.58593744 306.32613959 767.13787842 305.49081421 C749.45421953 301.20894556 731.75791451 296.98133145 714.0546875 292.78125 C713.40103061 292.62616974 712.74737372 292.47108948 712.07390904 292.31130981 C703.56602737 290.29302619 695.05757899 288.27713738 686.54900742 286.26176453 C679.07607236 284.49135255 671.6036014 282.718983 664.13106441 280.94689178 C658.29528262 279.56307173 652.45935091 278.17989137 646.62303162 276.79833984 C637.20854463 274.56957007 627.79433986 272.33987305 618.38514519 270.08884621 C614.77544098 269.22533952 611.16521297 268.36403493 607.55495071 267.50286484 C605.91081339 267.10992555 604.26696306 266.71578318 602.62342453 266.32034683 C600.4132177 265.78857368 598.20209746 265.26077788 595.99072266 264.73388672 C594.76688873 264.44037323 593.54305481 264.14685974 592.28213501 263.8444519 C589.34500289 263.12406325 589.34500289 263.12406325 586.33203125 263.2265625 C587.65828188 266.56902788 588.98798812 269.91010438 590.31970215 273.25039673 C590.82894546 274.52874423 591.33748773 275.80737121 591.84533691 277.08627319 C595.22675847 285.59833055 598.67480722 294.07939722 602.20916748 302.52922058 C604.04889734 306.929036 605.87720024 311.33357072 607.70568848 315.73806763 C608.62047872 317.93208352 609.54094193 320.123743 610.46716309 322.31295776 C611.78554866 325.43067753 613.08393319 328.55609073 614.37890625 331.68359375 C614.77835449 332.61388397 615.17780273 333.54417419 615.58935547 334.50265503 C617.86736269 340.06746321 619.36174258 345.18074036 618.33203125 351.2265625 C616.53809457 354.09686119 615.34939849 355.71787888 612.33203125 357.2265625 C604.33525364 357.71496327 596.52003505 356.93948492 588.61354065 355.82049561 C587.49451518 355.668775 586.37548972 355.51705439 585.22255439 355.36073619 C581.4943666 354.85327494 577.76786789 354.33435424 574.04125977 353.81542969 C571.3438976 353.44494787 568.64620296 353.07691233 565.94852066 352.7087698 C560.11528134 351.91143339 554.28287943 351.1081934 548.45099831 350.30098534 C539.86262248 349.11228318 531.27297135 347.93300656 522.68301692 346.755773 C508.41821427 344.80056591 494.15441866 342.83810701 479.89123535 340.87112427 C465.91224037 338.94334917 451.93289628 337.01814346 437.95300293 335.09689331 C437.08777903 334.9779856 436.22255512 334.85907789 435.33111231 334.73656691 C430.07971027 334.01489669 424.8282914 333.293349 419.57686612 332.57184793 C412.5608556 331.60789708 405.54486184 330.64382418 398.5288692 329.67974324 C396.7749445 329.43873539 395.02101902 329.19773316 393.26709278 328.95673656 C381.84663421 327.38750719 370.4263282 325.81717313 359.00616562 324.24579114 C317.72500082 318.56563595 276.43987925 312.91649517 235.14587212 307.33044052 C227.73372553 306.32772141 220.3218006 305.32337143 212.90992737 304.31863403 C209.36250301 303.83782284 205.81507633 303.35702872 202.26764905 302.87623906 C199.96517466 302.56417867 197.66270228 302.2521034 195.360232 301.94001269 C182.1532578 300.15005604 168.9455197 298.36596477 155.73654085 296.59086066 C147.63333218 295.50137773 139.53109093 294.4048947 131.42960161 293.30269974 C125.98264988 292.56197469 120.53470495 291.82933024 115.08574051 291.10356748 C111.83257907 290.6681278 108.58059698 290.22435998 105.32891548 289.77801561 C103.85119258 289.57685087 102.37300154 289.37908888 100.89431775 289.18511343 C83.55265809 286.90608314 83.55265809 286.90608314 79.10742188 281.54223633 C77.11696642 277.82491296 75.46647848 274.09653613 73.92578125 270.17578125 C73.45016251 268.99079041 73.45016251 268.99079041 72.9649353 267.78186035 C72.27667915 266.06494438 71.59151889 264.34678481 70.90911865 262.62753296 C69.42567375 258.89033956 67.92723711 255.15921133 66.42990112 251.42756653 C65.63267605 249.4402378 64.83624366 247.45259091 64.04055786 245.46464539 C59.90350526 235.13367744 55.69611222 224.83178684 51.48242188 214.53189087 C49.35478842 209.33066403 47.22995283 204.12829513 45.10546875 198.92578125 C44.48934723 197.41705696 44.48934723 197.41705696 43.86077881 195.87785339 C40.16888329 186.83374607 36.49714249 177.78155063 32.83203125 168.7265625 C27.02583546 154.38211382 21.18401317 140.0523899 15.33203125 125.7265625 C9.18668917 110.68258061 3.05590495 95.63296856 -3.04110718 80.56933594 C-9.70785113 64.10055221 -16.42537863 47.65253615 -23.14453125 31.20507812 C-23.56300827 30.1805957 -23.98148529 29.15611328 -24.41264343 28.10058594 C-25.19990184 26.17342634 -25.9873367 24.24633881 -26.77497864 22.31933594 C-27.45664202 20.65081641 -28.13745024 18.98194709 -28.81713867 17.31262207 C-29.50626938 15.62301595 -30.20196216 13.93608725 -30.8996582 12.25 C-32.2757558 8.62588279 -32.24682638 5.03048404 -31.66796875 1.2265625 C-24.51115523 -10.22433913 -10.37207921 -3.23042607 0 0 Z " fill="#A800DA" transform="translate(31.66796875,4.7734375)"/>
<path d="M0 0 C1.67787617 0.5123752 3.35610373 1.02360094 5.03465271 1.5337677 C8.63996465 2.63209838 12.2427722 3.73817343 15.84381104 4.85043335 C21.60290206 6.62916869 27.36715551 8.39073739 33.13232422 10.1496582 C40.17068057 12.2981597 47.20781801 14.45056696 54.24342346 16.60805988 C66.64854764 20.41161622 79.0630221 24.18339716 91.484375 27.93359375 C92.37637037 28.20291718 93.26836575 28.4722406 94.18739128 28.74972534 C98.66007482 30.09999617 103.13293124 31.44969322 107.60586548 32.7991333 C115.68027664 35.23542863 123.7531023 37.67696861 131.82598686 40.11831665 C134.48537359 40.92253937 137.14479028 41.72666293 139.80421448 42.53076172 C158.42442161 48.16088179 177.04306383 53.79617128 195.66163635 59.43169403 C225.24678694 68.38657559 254.83405006 77.3344577 284.42260742 86.27807617 C287.11677186 87.092437 289.81093561 87.90680011 292.50509834 88.72116661 C294.30996156 89.26672387 296.11482581 89.81227771 297.91969109 90.35782814 C311.37664313 94.42547548 324.83290391 98.49540381 338.28881073 102.56650734 C344.21098897 104.35819408 350.13327192 106.14953471 356.05555725 107.94086742 C361.68541058 109.64379063 367.31509778 111.34726154 372.94465923 113.05114937 C376.43726543 114.10809668 379.93003773 115.16449429 383.42285347 116.2207489 C385.02355399 116.70493299 386.62418799 117.18933704 388.2247448 117.67399597 C398.91216798 120.9100599 409.61492109 124.09019541 420.33203125 127.2265625 C418.45769473 121.40778821 416.40159103 115.71448947 414.07421875 110.0625 C413.76940582 109.31550842 413.4645929 108.56851685 413.15054321 107.79888916 C412.50370771 106.21389264 411.85576845 104.62934616 411.20678711 103.04522705 C410.19525951 100.57278929 409.18947892 98.09808952 408.18554688 95.62255859 C404.48477656 86.48589285 404.48477656 86.48589285 400.73535156 77.36914062 C399.42142171 74.20167933 398.12496048 71.02763649 396.83203125 67.8515625 C396.45288574 66.95743652 396.07374023 66.06331055 395.68310547 65.14208984 C393.65133854 60.0966502 392.84958925 56.6667799 394.33203125 51.2265625 C396.26953125 48.2890625 396.26953125 48.2890625 399.33203125 46.2265625 C407.54528565 44.81656976 415.13321132 47.70417466 422.796875 50.328125 C424.09841253 50.76166565 425.40040649 51.19383811 426.70281982 51.6247406 C429.46298974 52.54098462 432.21987912 53.46628002 434.97445679 54.39920044 C439.32486824 55.87255391 443.68193681 57.32546175 448.0402832 58.77514648 C453.13907673 60.47244715 458.23639225 62.17402739 463.33150768 63.88233852 C473.05766287 67.14301007 482.80425204 70.3374943 492.56448364 73.49456787 C496.75277951 74.84997074 500.9389334 76.21194921 505.125 77.57421875 C505.98669296 77.85458984 506.84838593 78.13496094 507.7361908 78.42382812 C520.77526024 82.6696023 533.80262264 86.95125481 546.83203125 91.2265625 C564.98171186 97.18193781 583.13473808 103.12654731 601.30172729 109.02896118 C612.93402713 112.80872539 624.55906089 116.61030051 636.1796875 120.42578125 C637.57298586 120.88315434 638.96628623 121.34052128 640.35958862 121.79788208 C646.56549338 123.83518384 652.77115765 125.87320717 658.97583866 127.91423321 C660.92363773 128.55475639 662.87162385 129.19470703 664.81968689 129.83442688 C667.21224725 130.62017127 669.60449221 131.40687702 671.99635315 132.19474792 C678.41485258 134.30115597 684.84961071 136.32554822 691.33203125 138.2265625 C690.85636719 137.13988281 690.38070312 136.05320313 689.890625 134.93359375 C682.99850843 119.07108079 676.52449503 103.04295112 670.06826782 86.99942017 C668.36252452 82.76508339 666.64233333 78.53733998 664.89784241 74.31881714 C664.16876083 72.55472001 663.44452558 70.78862236 662.72045898 69.02246094 C661.86344416 66.93255036 660.99888115 64.84571212 660.12524414 62.76269531 C656.63147843 54.18373517 656.63147843 54.18373517 657.33203125 49.2265625 C659.05224861 45.91355129 660.42342935 43.80705816 663.58203125 41.7890625 C672.17726805 40.03094588 681.30440895 44.13522429 689.4609375 46.6171875 C690.97940948 47.07397613 692.49806573 47.53015259 694.01689148 47.98576355 C697.27109906 48.9631607 700.52411508 49.94439289 703.77624512 50.92868042 C708.97154716 52.50088961 714.16955153 54.06402098 719.36816406 55.62524414 C721.14450125 56.15876598 722.92083792 56.69228955 724.69717407 57.22581482 C725.58165852 57.4914517 726.46614296 57.75708858 727.37742996 58.03077507 C730.08524975 58.8443316 732.79282251 59.65870558 735.50033569 60.47328186 C751.79642799 65.37486398 768.11098429 70.21267508 784.43229675 75.02950668 C788.0549931 76.09884945 791.67739341 77.169194 795.29980469 78.23950195 C796.76838129 78.67340755 798.23695836 79.10731155 799.70553589 79.54121399 C800.43638271 79.75715021 801.16722954 79.97308643 801.92022324 80.19556618 C804.14414805 80.85260335 806.3681063 81.50952726 808.59207153 82.16642761 C825.75498441 87.23619613 842.91426892 92.31821179 860.07299042 97.40214539 C861.78685776 97.909944 863.50073004 98.41772599 865.21460724 98.92549133 C891.2349831 106.63448252 917.24994095 114.36155748 943.26167297 122.09965897 C966.30020463 128.95314563 989.3442186 135.78780322 1012.39453125 142.6015625 C1013.11773056 142.81534294 1013.84092987 143.02912338 1014.58604431 143.24938202 C1016.7842489 143.89917158 1018.98245621 144.54895195 1021.18066406 145.19873047 C1024.14128014 146.07387938 1027.1018918 146.94904319 1030.0625 147.82421875 C1030.80068089 148.04242531 1031.53886177 148.26063187 1032.29941177 148.48545074 C1054.33431678 154.99922413 1076.36441206 161.52923603 1098.39477539 168.05834961 C1099.23790881 168.30822789 1100.08104223 168.55810617 1100.94972515 168.81555653 C1101.79412057 169.06580932 1102.63851599 169.31606211 1103.50849915 169.57389832 C1104.35406183 169.82449697 1105.19962452 170.07509563 1106.07081032 170.33328819 C1107.78251126 170.84058735 1109.49421043 171.34789251 1111.20590782 171.85520363 C1120.7662057 174.68865529 1130.32669888 177.52144535 1139.88769531 180.35253906 C1140.76095648 180.61112418 1141.63421764 180.8697093 1142.53394127 181.13613033 C1146.93216102 182.43846589 1151.33043716 183.74061065 1155.72879028 185.04249573 C1164.31220886 187.5834063 1172.89468639 190.12741786 1181.47509766 192.6784668 C1184.77629244 193.65959417 1188.07757145 194.64043764 1191.37890625 195.62109375 C1192.18235348 195.85980635 1192.9858007 196.09851894 1193.81359482 196.34446526 C1204.46530499 199.507584 1215.12974926 202.62260054 1225.80802917 205.69475746 C1229.85190907 206.86057062 1233.89271647 208.03698645 1237.93328094 209.21423244 C1241.03099939 210.115625 1244.13113623 211.00668392 1247.23583984 211.88375854 C1250.57042365 212.82596843 1253.89689582 213.79281113 1257.22265625 214.765625 C1258.18617004 215.03022018 1259.14968384 215.29481537 1260.14239502 215.56742859 C1266.01829194 217.32096693 1268.95644005 219.04320454 1272.33203125 224.2265625 C1273.20408775 227.35057667 1273.07539034 230.07309387 1272.33203125 233.2265625 C1270.1504398 235.98225697 1268.46025631 237.66244997 1265.33203125 239.2265625 C1255.33544728 239.72534454 1245.24810815 238.99438748 1235.25546265 238.54321289 C1233.5583771 238.46872098 1231.8612804 238.39448264 1230.16417372 238.32047367 C1225.53266381 238.11778738 1220.9013163 237.91158436 1216.2699883 237.70478868 C1211.26240056 237.48183174 1206.25466646 237.2622092 1201.24694824 237.04220581 C1192.57707441 236.66089658 1183.90729021 236.27760222 1175.23756027 235.89303589 C1162.68209572 235.3361852 1150.12645922 234.78329105 1137.57077117 234.23150504 C1117.17030712 233.33493455 1096.76992851 232.4364371 1076.36962891 231.53613281 C1075.14983104 231.48230175 1073.93003317 231.42847068 1072.67327173 231.37300837 C1059.07097957 230.77268293 1045.46870704 230.17191428 1031.86645508 229.57067871 C1026.93652371 229.35277697 1022.00659211 229.13488063 1017.07666016 228.91699219 C1015.86017604 228.86322627 1014.64369193 228.80946035 1013.39034466 228.75406516 C993.07122005 227.85609515 972.75195392 226.96137126 952.43257582 226.06915569 C939.91675547 225.51945138 927.40106392 224.96696731 914.88552709 224.41084456 C906.30145014 224.02961838 897.71724384 223.65140301 889.13293187 223.27550626 C884.18873976 223.058905 879.24461639 222.84096794 874.30064774 222.61931992 C869.76185503 222.41586124 865.22290548 222.21634962 860.68380924 222.0197829 C859.05460034 221.94856103 857.42545056 221.87596834 855.79637544 221.80174935 C844.30165358 221.27915382 832.83823063 221.14823551 821.33203125 221.2265625 C824.34802611 228.81182763 827.3699961 236.39469885 830.39453125 243.9765625 C830.84422272 245.10470367 831.29391418 246.23284485 831.75723267 247.39517212 C836.41353971 259.06910341 841.0841468 270.734144 845.96484375 282.31640625 C846.49019966 283.56452591 846.49019966 283.56452591 847.02616882 284.83786011 C848.64595648 288.6791141 850.27715992 292.51502692 851.92407227 296.34472656 C852.50162494 297.70501016 853.079027 299.06535773 853.65625 300.42578125 C854.40007935 302.15574341 854.40007935 302.15574341 855.15893555 303.9206543 C856.87397145 308.7538075 857.93162205 312.58557716 856.14453125 317.4765625 C853.27290082 321.83351902 853.27290082 321.83351902 850.33203125 323.2265625 C844.50501503 323.73764027 839.02302486 322.98180743 833.37036133 321.55957031 C832.61973734 321.37961958 831.86911335 321.19966885 831.09574318 321.01426506 C828.59525613 320.4123194 826.0985597 319.79593575 823.6015625 319.1796875 C821.78555567 318.73975545 819.96930982 318.30080912 818.15284729 317.86276245 C814.22139565 316.91277812 810.29151568 315.95662412 806.36273193 314.9956665 C800.05830402 313.45394145 793.75050879 311.92634835 787.44189453 310.40185547 C786.36036606 310.14046721 785.27883759 309.87907894 784.16453552 309.60976982 C781.9371963 309.07147008 779.70984787 308.53320849 777.48249054 307.99498367 C774.03405366 307.16121942 770.58593744 306.32613959 767.13787842 305.49081421 C749.45421953 301.20894556 731.75791451 296.98133145 714.0546875 292.78125 C713.40103061 292.62616974 712.74737372 292.47108948 712.07390904 292.31130981 C703.56602737 290.29302619 695.05757899 288.27713738 686.54900742 286.26176453 C679.07607236 284.49135255 671.6036014 282.718983 664.13106441 280.94689178 C658.29528262 279.56307173 652.45935091 278.17989137 646.62303162 276.79833984 C637.20854463 274.56957007 627.79433986 272.33987305 618.38514519 270.08884621 C614.77544098 269.22533952 611.16521297 268.36403493 607.55495071 267.50286484 C605.91081339 267.10992555 604.26696306 266.71578318 602.62342453 266.32034683 C600.4132177 265.78857368 598.20209746 265.26077788 595.99072266 264.73388672 C594.76688873 264.44037323 593.54305481 264.14685974 592.28213501 263.8444519 C589.34500289 263.12406325 589.34500289 263.12406325 586.33203125 263.2265625 C587.65828188 266.56902788 588.98798812 269.91010438 590.31970215 273.25039673 C590.82894546 274.52874423 591.33748773 275.80737121 591.84533691 277.08627319 C595.22675847 285.59833055 598.67480722 294.07939722 602.20916748 302.52922058 C604.04889734 306.929036 605.87720024 311.33357072 607.70568848 315.73806763 C608.62047872 317.93208352 609.54094193 320.123743 610.46716309 322.31295776 C611.78554866 325.43067753 613.08393319 328.55609073 614.37890625 331.68359375 C614.77835449 332.61388397 615.17780273 333.54417419 615.58935547 334.50265503 C617.86736269 340.06746321 619.36174258 345.18074036 618.33203125 351.2265625 C616.53809457 354.09686119 615.34939849 355.71787888 612.33203125 357.2265625 C604.33525364 357.71496327 596.52003505 356.93948492 588.61354065 355.82049561 C587.49451518 355.668775 586.37548972 355.51705439 585.22255439 355.36073619 C581.4943666 354.85327494 577.76786789 354.33435424 574.04125977 353.81542969 C571.3438976 353.44494787 568.64620296 353.07691233 565.94852066 352.7087698 C560.11528134 351.91143339 554.28287943 351.1081934 548.45099831 350.30098534 C539.86262248 349.11228318 531.27297135 347.93300656 522.68301692 346.755773 C508.41821427 344.80056591 494.15441866 342.83810701 479.89123535 340.87112427 C465.91224037 338.94334917 451.93289628 337.01814346 437.95300293 335.09689331 C437.08777903 334.9779856 436.22255512 334.85907789 435.33111231 334.73656691 C430.07971027 334.01489669 424.8282914 333.293349 419.57686612 332.57184793 C412.5608556 331.60789708 405.54486184 330.64382418 398.5288692 329.67974324 C396.7749445 329.43873539 395.02101902 329.19773316 393.26709278 328.95673656 C381.84663421 327.38750719 370.4263282 325.81717313 359.00616562 324.24579114 C317.72500082 318.56563595 276.43987925 312.91649517 235.14587212 307.33044052 C227.73372553 306.32772141 220.3218006 305.32337143 212.90992737 304.31863403 C209.36250301 303.83782284 205.81507633 303.35702872 202.26764905 302.87623906 C199.96517466 302.56417867 197.66270228 302.2521034 195.360232 301.94001269 C182.1532578 300.15005604 168.9455197 298.36596477 155.73654085 296.59086066 C147.63333218 295.50137773 139.53109093 294.4048947 131.42960161 293.30269974 C125.98264988 292.56197469 120.53470495 291.82933024 115.08574051 291.10356748 C111.83257907 290.6681278 108.58059698 290.22435998 105.32891548 289.77801561 C103.85119258 289.57685087 102.37300154 289.37908888 100.89431775 289.18511343 C83.55265809 286.90608314 83.55265809 286.90608314 79.10742188 281.54223633 C77.11696642 277.82491296 75.46647848 274.09653613 73.92578125 270.17578125 C73.45016251 268.99079041 73.45016251 268.99079041 72.9649353 267.78186035 C72.27667915 266.06494438 71.59151889 264.34678481 70.90911865 262.62753296 C69.42567375 258.89033956 67.92723711 255.15921133 66.42990112 251.42756653 C65.63267605 249.4402378 64.83624366 247.45259091 64.04055786 245.46464539 C59.90350526 235.13367744 55.69611222 224.83178684 51.48242188 214.53189087 C49.35478842 209.33066403 47.22995283 204.12829513 45.10546875 198.92578125 C44.48934723 197.41705696 44.48934723 197.41705696 43.86077881 195.87785339 C40.16888329 186.83374607 36.49714249 177.78155063 32.83203125 168.7265625 C27.02583546 154.38211382 21.18401317 140.0523899 15.33203125 125.7265625 C9.18668917 110.68258061 3.05590495 95.63296856 -3.04110718 80.56933594 C-9.70785113 64.10055221 -16.42537863 47.65253615 -23.14453125 31.20507812 C-23.56300827 30.1805957 -23.98148529 29.15611328 -24.41264343 28.10058594 C-25.19990184 26.17342634 -25.9873367 24.24633881 -26.77497864 22.31933594 C-27.45664202 20.65081641 -28.13745024 18.98194709 -28.81713867 17.31262207 C-29.50626938 15.62301595 -30.20196216 13.93608725 -30.8996582 12.25 C-32.2757558 8.62588279 -32.24682638 5.03048404 -31.66796875 1.2265625 C-24.51115523 -10.22433913 -10.37207921 -3.23042607 0 0 Z M-2.66796875 22.2265625 C-1.98881829 26.45393781 -0.61127713 30.12857205 1.0078125 34.0859375 C1.28465378 34.76613953 1.56149506 35.44634155 1.84672546 36.14715576 C2.77515504 38.42535228 3.70987706 40.70091338 4.64453125 42.9765625 C5.31095759 44.6085563 5.97696227 46.24072235 6.64257812 47.87304688 C8.09076759 51.42224911 9.54168063 54.97032139 10.99462891 58.51757812 C13.41788351 64.43424198 15.83447375 70.35361499 18.25 76.2734375 C19.0920328 78.33691741 19.93407387 80.40039396 20.77612305 82.46386719 C21.1964682 83.49394897 21.61681335 84.52403076 22.04989624 85.58532715 C23.34111596 88.74882006 24.63299202 91.91204421 25.92504883 95.07519531 C31.20962385 108.01402062 36.47429955 120.9606843 41.71826172 133.91601562 C47.65752884 148.58681902 53.63930769 163.24015371 59.62524414 177.89196777 C64.58848541 190.04112742 69.54211233 202.19397807 74.46362305 214.36010742 C75.68926343 217.38989044 76.91717998 220.41873078 78.14770508 223.4465332 C78.44118332 224.16870529 78.73466156 224.89087738 79.03703308 225.63493347 C79.61688613 227.06173092 80.19681045 228.4884994 80.77680969 229.91523743 C82.51028113 234.18488934 84.22581477 238.46129573 85.92941284 242.74295044 C87.02567629 245.49179775 88.13262359 248.23625782 89.24194336 250.9798584 C89.99702643 252.85808309 90.73799555 254.74196264 91.47851562 256.62597656 C92.15430664 258.29031738 92.15430664 258.29031738 92.84375 259.98828125 C93.23006592 260.95725342 93.61638184 261.92622559 94.0144043 262.92456055 C95.62292986 265.73478615 96.32950358 266.07242083 99.33203125 267.2265625 C102.16650827 267.75452651 104.96139748 268.20027691 107.81542969 268.58349609 C108.67169449 268.70415939 109.52795929 268.82482269 110.41017151 268.94914246 C113.25300835 269.34793972 116.09713677 269.73656291 118.94140625 270.125 C120.94418914 270.40346897 122.94689381 270.68250112 124.94952393 270.96206665 C129.16905497 271.54964606 133.38918995 272.1325977 137.60986328 272.71191406 C142.92008338 273.44081875 148.2291898 274.17744888 153.53791046 274.91718674 C171.77329624 277.45732373 190.00778644 279.98240739 208.28515625 282.203125 C221.17956394 283.77421049 234.03413227 285.57963303 246.890625 287.43359375 C265.9574647 290.18309784 285.03243284 292.8658601 304.1171875 295.48828125 C304.77472881 295.57863348 305.43227012 295.66898572 306.10973692 295.7620759 C314.16601009 296.86882458 322.22265161 297.97287655 330.27941072 299.0760814 C335.06350721 299.73132471 339.84736447 300.38829508 344.63110352 301.04614258 C379.33032701 305.86270859 379.33032701 305.86270859 414.078125 310.30859375 C427.85920638 311.98042911 441.59233475 313.94869556 455.33174324 315.92992783 C479.82512583 319.46127538 504.340468 322.82517216 528.86083984 326.16333008 C535.10682762 327.01371788 541.35235262 327.86745763 547.59777641 328.72197628 C552.47011277 329.38820771 557.34270022 330.05258736 562.21536636 330.71640205 C564.52399192 331.03117051 566.83253347 331.34655576 569.1409874 331.66258049 C572.31752942 332.0972032 575.49440584 332.52929202 578.67138672 332.96069336 C579.61220093 333.08995712 580.55301514 333.21922089 581.52233887 333.35240173 C582.81064102 333.52654602 582.81064102 333.52654602 584.12496948 333.70420837 C584.86973982 333.8057318 585.61451015 333.90725523 586.38184929 334.01185513 C588.50203397 334.28127992 588.50203397 334.28127992 591.33203125 334.2265625 C588.85275762 326.29646707 585.74587069 318.64429731 582.60696411 310.95901489 C581.62645458 308.5572842 580.65060881 306.15369888 579.67553711 303.74975586 C576.46069579 295.83490506 573.21811643 287.93249786 569.92207336 280.05108643 C568.43420453 276.49269381 566.9533065 272.93141452 565.47225952 269.37017822 C564.75701982 267.657208 564.0378342 265.94587973 563.31460571 264.23626709 C562.30189661 261.84231371 561.3021373 259.44331174 560.3046875 257.04296875 C560.00230164 256.3382695 559.69991577 255.63357025 559.3883667 254.90751648 C557.72586179 250.86638332 556.83945114 247.59548214 557.33203125 243.2265625 C559.13196899 240.52665588 560.41580425 238.684676 563.33203125 237.2265625 C570.07291742 236.78944019 575.88980317 238.11274193 582.39453125 239.7890625 C584.63358064 240.34719848 586.87319118 240.90308686 589.11328125 241.45703125 C590.29019531 241.74884277 591.46710937 242.0406543 592.6796875 242.34130859 C598.89837097 243.8485911 605.14768969 245.21662528 611.39453125 246.6015625 C622.84891711 249.15123421 634.23602904 251.9174348 645.6098938 254.8036499 C655.73824949 257.37064389 665.89881846 259.72250763 676.11035156 261.93774414 C684.89609494 263.86245596 693.61546072 266.014758 702.33203125 268.2265625 C712.05110576 270.69269756 721.78053771 273.04257841 731.58203125 275.1640625 C742.22385819 277.46915137 752.77824597 280.05363819 763.33203125 282.7265625 C777.32879371 286.27059154 791.35953625 289.52871708 805.47021484 292.59326172 C810.46297665 293.69812643 815.43570037 294.88901384 820.40112305 296.1105957 C823.13670116 296.77223886 825.50249043 297.2265625 828.33203125 297.2265625 C826.25761969 290.72822798 823.87554408 284.40271246 821.3046875 278.0859375 C820.9191571 277.13298294 820.53362671 276.18002838 820.13641357 275.19819641 C819.31500092 273.1693055 818.49228757 271.14094077 817.66836548 269.11306763 C816.3836536 265.94977894 815.10391078 262.78451475 813.82495117 259.61889648 C810.08409961 250.37323295 806.32499275 241.13838927 802.41015625 231.96484375 C802.12373764 231.28986847 801.83731903 230.61489319 801.54222107 229.91946411 C800.25688785 226.89056382 798.95956174 223.86844609 797.63500977 220.85644531 C795.17727246 215.09126141 793.24963537 210.50721633 794.33203125 204.2265625 C796.98489101 200.74590178 798.42148099 199.36754195 802.79837322 198.68987274 C804.21619543 198.70872385 805.63378361 198.75740466 807.04997253 198.82800293 C807.86469943 198.84839237 808.67942633 198.86878181 809.51884192 198.8897891 C812.45818396 198.97356338 815.39424167 199.09969607 818.33203125 199.2265625 C820.72826923 199.31380465 823.12454037 199.40013898 825.52083778 199.48573303 C833.48725466 199.78454927 841.45091254 200.13632849 849.41483986 200.49470735 C853.59395548 200.68182582 857.77328552 200.8640387 861.95259094 201.04685974 C869.17530735 201.36344208 876.39788835 201.68297144 883.62038612 202.00450134 C894.07777835 202.46998269 904.53539663 202.93021736 914.9930798 203.38911039 C931.98518412 204.13482334 948.97714351 204.8837837 965.96899414 205.63525391 C966.98334875 205.68011313 967.99770335 205.72497235 969.04279598 205.77119094 C973.15284056 205.9529611 977.26288471 206.13474121 981.37292831 206.31653365 C992.69757413 206.81741757 1004.02224247 207.31779125 1015.34692383 207.81787109 C1016.36154292 207.86267603 1017.376162 207.90748096 1018.42152712 207.95364362 C1035.36098801 208.70159486 1052.30055556 209.44710642 1069.24019212 210.19106817 C1079.66815765 210.64917998 1090.09601733 211.10958252 1100.52374872 211.57299411 C1107.66780241 211.89035331 1114.81194886 212.20556286 1121.95617089 212.51910937 C1126.07142599 212.69980267 1130.18663028 212.88149962 1134.30171967 213.06593132 C1138.07706036 213.23512235 1141.85251746 213.40142376 1145.62808182 213.5655455 C1147.6221198 213.65295623 1149.61602475 213.74338584 1151.60992128 213.83396578 C1159.85941898 214.18889646 1168.07543535 214.29141843 1176.33203125 214.2265625 C1173.49562919 212.33562779 1171.64585007 211.622104 1168.4140625 210.74609375 C1167.41882568 210.47265137 1166.42358887 210.19920898 1165.39819336 209.91748047 C1164.32448486 209.62760254 1163.25077637 209.33772461 1162.14453125 209.0390625 C1159.87079685 208.41383915 1157.59736669 207.78750846 1155.32421875 207.16015625 C1154.16245117 206.84030762 1153.00068359 206.52045898 1151.80371094 206.19091797 C1146.44674703 204.70287244 1141.10678796 203.15860525 1135.76953125 201.6015625 C1134.40115112 201.20481323 1134.40115112 201.20481323 1133.00512695 200.80004883 C1127.58909133 199.21834054 1122.1983333 197.56483943 1116.81640625 195.87109375 C1107.62513737 192.9821998 1098.38725292 190.25794652 1089.14453125 187.5390625 C1087.27112184 186.98694199 1085.39775068 186.43469168 1083.52441406 185.88232422 C1079.40853235 184.66886788 1075.2924509 183.45609181 1071.17626953 182.24365234 C1064.36710919 180.23749178 1057.5590999 178.22744114 1050.7512722 176.21676445 C1046.7006117 175.02044181 1042.6498698 173.82439479 1038.59913731 172.62831593 C1035.30048671 171.65430221 1032.00185601 170.68022127 1028.70327759 169.70596313 C1024.9598545 168.60045237 1021.2162982 167.49539441 1017.47265625 166.390625 C1016.27219162 166.03628891 1015.07172699 165.68195282 1013.83488464 165.31687927 C1007.08480294 163.32650418 1000.33042536 161.35172816 993.57183838 159.39044189 C984.70918352 156.81812971 975.87742423 154.17845721 967.078125 151.39746094 C961.06151651 149.51687867 955.01363145 147.7449914 948.96368408 145.97515869 C946.76623487 145.33231435 944.56935341 144.68755727 942.37255859 144.04248047 C935.65660432 142.07160988 928.93815061 140.10972637 922.21484375 138.1640625 C913.50817651 135.64318938 904.83618243 133.12092312 896.26171875 130.17578125 C891.82042939 128.7368035 887.32048287 127.52648046 882.81811523 126.29467773 C876.20006858 124.48028421 869.60714685 122.5858794 863.01953125 120.6640625 C861.57175293 120.24290161 861.57175293 120.24290161 860.09472656 119.81323242 C855.1274672 118.36142648 850.17274547 116.87526026 845.22900391 115.34521484 C838.8624278 113.38327852 832.48193012 111.47226668 826.09375 109.58203125 C824.97047806 109.24915604 823.84720612 108.91628082 822.68989563 108.57331848 C820.32615749 107.87301266 817.96232061 107.17304005 815.59838867 106.47338867 C812.06597908 105.42781086 808.53394169 104.38098343 805.00195312 103.33398438 C792.68320069 99.68467719 780.35994663 96.05246647 768.01701355 92.48564148 C763.29542034 91.1159292 758.60717882 89.70156788 753.95703125 88.1015625 C748.63476442 86.27347955 743.24541732 84.78037408 737.8203125 83.29467773 C724.02454669 79.50970757 710.21949152 75.66669304 696.69140625 71.00390625 C693.27770846 69.87919456 689.83298567 69.03447506 686.33203125 68.2265625 C687.0043867 72.49269806 688.43031268 76.14361336 690.11328125 80.11328125 C690.39895966 80.79196762 690.68463806 81.47065399 690.97897339 82.16990662 C691.60036244 83.6455836 692.22371971 85.120433 692.84881592 86.59454346 C694.54400863 90.59369973 696.22345926 94.59944418 697.90234375 98.60546875 C698.25720856 99.45171814 698.61207336 100.29796753 698.97769165 101.16986084 C704.08544975 113.38002028 709.01255906 125.66404 713.95898438 137.94018555 C714.31106964 138.81336929 714.66315491 139.68655304 715.02590942 140.5861969 C715.68814303 142.22910335 716.34954273 143.87234626 717.00997925 145.51597595 C718.5674531 149.41708436 718.5674531 149.41708436 720.33203125 153.2265625 C720.74407959 157.86210638 720.20657271 160.53072348 717.33203125 164.2265625 C712.91425368 166.98940918 709.25499413 166.15492451 704.33203125 165.2265625 C701.47453363 164.51359245 698.70228726 163.62006866 695.91455078 162.6730957 C695.12399292 162.41258423 694.33343506 162.15207275 693.5189209 161.88366699 C690.91471264 161.02323305 688.31487378 160.15031362 685.71484375 159.27734375 C683.85800607 158.66131368 682.0008933 158.04611224 680.14352417 157.4316864 C675.23540585 155.80577719 670.33082501 154.16945095 665.42700195 152.53063965 C660.60422147 150.92046925 655.77868032 149.3186284 650.953125 147.71679688 C649.03983182 147.08160527 647.12654243 146.44640221 645.21325684 145.81118774 C644.26562973 145.49659229 643.31800262 145.18199684 642.34165955 144.85786819 C639.45522499 143.89914891 636.56919068 142.93923276 633.68322754 141.97909546 C615.09490586 135.79801972 596.46860895 129.73543224 577.83612061 123.6890564 C571.94195482 121.77593103 566.05075295 119.85377368 560.16015625 117.9296875 C558.36442828 117.34348225 556.56869289 116.75729972 554.77294922 116.17114258 C553.92488708 115.89428619 553.07682495 115.61742981 552.20306396 115.33218384 C538.54631605 110.87401555 524.88517101 106.43115861 511.20703125 102.0390625 C500.28558042 98.5303348 489.39792888 94.92855471 478.51953125 91.2890625 C466.87236558 87.3947005 455.21918026 83.51978731 443.54165649 79.71725464 C442.03689872 79.22671731 440.53263822 78.7346517 439.02890015 78.24099731 C436.95294374 77.55996568 434.87521702 76.88464782 432.796875 76.2109375 C431.02751587 75.63424316 431.02751587 75.63424316 429.22241211 75.04589844 C426.35169608 74.09020041 426.35169608 74.09020041 423.33203125 74.2265625 C425.33908487 80.49395748 427.6102065 86.60395962 430.09765625 92.6953125 C430.63238556 94.01408386 430.63238556 94.01408386 431.17791748 95.35949707 C432.31002013 98.14958391 433.44599832 100.93807399 434.58203125 103.7265625 C435.32837114 105.56500426 436.07446668 107.40354524 436.8203125 109.2421875 C437.37048035 110.59666992 437.37048035 110.59666992 437.9317627 111.97851562 C438.66458173 113.78287677 439.39660297 115.58756215 440.12780762 117.39257812 C441.86144872 121.66120692 443.61821239 125.9163672 445.43945312 130.1484375 C445.93115997 131.30285339 445.93115997 131.30285339 446.43280029 132.48059082 C447.04226232 133.90726904 447.66016485 135.33038578 448.28839111 136.74890137 C449.98266054 140.73418626 450.76460518 143.90082322 450.33203125 148.2265625 C448.06732537 152.85891544 448.06732537 152.85891544 445.33203125 154.2265625 C437.92099741 154.98470378 431.63000159 153.48280743 424.64453125 151.1640625 C422.61339848 150.51786058 420.58214497 149.87203806 418.55078125 149.2265625 C417.52082031 148.89398438 416.49085938 148.56140625 415.4296875 148.21875 C410.51796441 146.64551209 405.58118616 145.15681192 400.64453125 143.6640625 C398.72391502 143.07956938 396.80334166 142.49493538 394.8828125 141.91015625 C388.88984374 140.08973098 382.89039298 138.29126076 376.88989258 136.49584961 C369.55220824 134.29810664 362.22511925 132.06613261 354.8984375 129.83203125 C348.71430652 127.94773899 342.52557389 126.07967046 336.33203125 124.2265625 C328.17961809 121.78736048 320.03792805 119.31397977 311.8984375 116.83203125 C305.71430652 114.94773899 299.52557389 113.07967046 293.33203125 111.2265625 C285.17961809 108.78736048 277.03792805 106.31397977 268.8984375 103.83203125 C262.71430619 101.94773889 256.52555663 100.0797287 250.33203125 98.2265625 C243.22234968 96.09869231 236.1188502 93.95125824 229.01953125 91.7890625 C228.0562793 91.49572021 227.09302734 91.20237793 226.10058594 90.90014648 C221.30328628 89.43848174 216.50672677 87.97442496 211.7109375 86.5078125 C201.28632404 83.32316829 190.84892762 80.1871544 180.39453125 77.1015625 C172.18854531 74.67928272 164.00609083 72.20662441 155.84765625 69.62890625 C149.5063903 67.64387963 143.13531788 65.75609555 136.76953125 63.8515625 C127.57583717 61.10086132 118.3855716 58.34004404 109.20703125 55.5390625 C101.44055399 53.16917205 93.6674439 50.82292223 85.88818359 48.49536133 C78.55108611 46.29772386 71.22455268 44.06595985 63.8984375 41.83203125 C57.7143062 39.94773889 51.52555799 38.07972421 45.33203125 36.2265625 C38.01397405 34.0363741 30.70233476 31.82572815 23.39453125 29.6015625 C22.42362549 29.30628662 21.45271973 29.01101074 20.45239258 28.70678711 C16.31744791 27.4476165 12.18401599 26.18459468 8.05859375 24.89453125 C6.89070313 24.52972656 5.7228125 24.16492188 4.51953125 23.7890625 C3.54371094 23.48097656 2.56789063 23.17289063 1.5625 22.85546875 C-0.60255335 22.13610247 -0.60255335 22.13610247 -2.66796875 22.2265625 Z " fill="#010100" transform="translate(31.66796875,4.7734375)"/>
</svg>
